<svg width="18" height="19" viewBox="0 0 18 19" fill="none" xmlns="http://www.w3.org/2000/svg">
<path d="M15.75 9.50004C15.75 9.64922 15.6907 9.7923 15.5852 9.89779C15.4797 10.0033 15.3367 10.0625 15.1875 10.0625H4.17022L8.27295 14.1646C8.32522 14.2168 8.36667 14.2789 8.39496 14.3472C8.42324 14.4154 8.4378 14.4886 8.4378 14.5625C8.4378 14.6364 8.42324 14.7096 8.39496 14.7779C8.36667 14.8462 8.32522 14.9082 8.27295 14.9605C8.22069 15.0128 8.15865 15.0542 8.09036 15.0825C8.02208 15.1108 7.94889 15.1254 7.87498 15.1254C7.80107 15.1254 7.72789 15.1108 7.65961 15.0825C7.59132 15.0542 7.52928 15.0128 7.47702 14.9605L2.41452 9.89801C2.36222 9.84577 2.32073 9.78373 2.29242 9.71544C2.26411 9.64716 2.24954 9.57396 2.24954 9.50004C2.24954 9.42612 2.26411 9.35292 2.29242 9.28463C2.32073 9.21635 2.36222 9.15431 2.41452 9.10207L7.47702 4.03957C7.58256 3.93402 7.72572 3.87473 7.87498 3.87473C8.02425 3.87473 8.16741 3.93402 8.27295 4.03957C8.3785 4.14512 8.4378 4.28827 8.4378 4.43754C8.4378 4.58681 8.3785 4.72996 8.27295 4.83551L4.17022 8.93754H15.1875C15.3367 8.93754 15.4797 8.9968 15.5852 9.10229C15.6907 9.20778 15.75 9.35085 15.75 9.50004Z" fill="#0070DF"/>
</svg>
