<svg width="130" height="184" viewBox="0 0 130 184" fill="none" xmlns="http://www.w3.org/2000/svg">
<path d="M83.5772 36.1655H110.151V180.376H83.5772V168.207C75.7563 178.232 64.6354 183.244 50.2144 183.244C43.5153 183.302 36.8816 181.923 30.7603 179.201C24.6391 176.478 19.1725 172.475 14.7289 167.462C4.90963 156.951 0 144.075 0 128.833C0 113.591 4.90963 100.72 14.7289 90.2201C19.1791 85.2083 24.6522 81.2091 30.7793 78.4922C36.9063 75.7753 43.5447 74.4038 50.2468 74.4704C64.6678 74.4704 75.7887 79.4826 83.6096 89.5071L83.5772 36.1655ZM34.6753 149.735C37.3551 152.412 40.5549 154.512 44.0773 155.906C47.5998 157.299 51.3703 157.956 55.1564 157.837C58.9305 157.957 62.6889 157.299 66.1983 155.906C69.7076 154.512 72.893 152.412 75.5565 149.735C80.7214 143.998 83.5795 136.552 83.5795 128.833C83.5795 121.113 80.7214 113.667 75.5565 107.93C72.893 105.254 69.7076 103.154 66.1983 101.76C62.6889 100.366 58.9305 99.7088 55.1564 99.8287C51.3706 99.7121 47.601 100.371 44.0789 101.764C40.5569 103.157 37.3568 105.256 34.6753 107.93C29.442 113.634 26.5385 121.092 26.5385 128.833C26.5385 136.573 29.442 144.032 34.6753 149.735Z" fill="#0070DF"/>
<path d="M96.7182 0L63.4202 48.4158H130L96.7182 0Z" fill="#0070DF"/>
</svg>
