<svg width="24" height="19" viewBox="0 0 24 19" fill="none" xmlns="http://www.w3.org/2000/svg">
<path d="M22.4 17.5H20.9V10.75L21.1194 10.9694C21.2604 11.1101 21.4515 11.1891 21.6507 11.1889C21.8499 11.1887 22.0409 11.1094 22.1816 10.9684C22.3223 10.8275 22.4013 10.6363 22.4011 10.4371C22.4009 10.2379 22.3216 10.047 22.1806 9.90625L12.9603 0.688748C12.6791 0.407656 12.2977 0.249756 11.9 0.249756C11.5024 0.249756 11.121 0.407656 10.8397 0.688748L1.6194 9.90625C1.47879 10.047 1.39985 10.2378 1.39994 10.4367C1.40003 10.6357 1.47914 10.8264 1.61987 10.967C1.7606 11.1076 1.95142 11.1866 2.15036 11.1865C2.34929 11.1864 2.54004 11.1073 2.68065 10.9666L2.90002 10.75V17.5H1.40002C1.20111 17.5 1.01035 17.579 0.869694 17.7197C0.729042 17.8603 0.650024 18.0511 0.650024 18.25C0.650024 18.4489 0.729042 18.6397 0.869694 18.7803C1.01035 18.921 1.20111 19 1.40002 19H22.4C22.5989 19 22.7897 18.921 22.9304 18.7803C23.071 18.6397 23.15 18.4489 23.15 18.25C23.15 18.0511 23.071 17.8603 22.9304 17.7197C22.7897 17.579 22.5989 17.5 22.4 17.5ZM4.40002 9.25L11.9 1.75L19.4 9.25V17.5H14.9V12.25C14.9 12.0511 14.821 11.8603 14.6804 11.7197C14.5397 11.579 14.3489 11.5 14.15 11.5H9.65002C9.45111 11.5 9.26035 11.579 9.11969 11.7197C8.97904 11.8603 8.90002 12.0511 8.90002 12.25V17.5H4.40002V9.25ZM13.4 17.5H10.4V13H13.4V17.5Z" fill="#5D5D5D"/>
</svg>
