<svg width="19" height="15" viewBox="0 0 19 15" fill="none" xmlns="http://www.w3.org/2000/svg">
<path d="M18.2208 7.5C18.2208 7.69891 18.1417 7.88968 18.0011 8.03033C17.8604 8.17098 17.6697 8.25 17.4708 8.25H0.970764C0.771852 8.25 0.581086 8.17098 0.440434 8.03033C0.299782 7.88968 0.220764 7.69891 0.220764 7.5C0.220764 7.30109 0.299782 7.11032 0.440434 6.96967C0.581086 6.82902 0.771852 6.75 0.970764 6.75H17.4708C17.6697 6.75 17.8604 6.82902 18.0011 6.96967C18.1417 7.11032 18.2208 7.30109 18.2208 7.5ZM0.970764 2.25H17.4708C17.6697 2.25 17.8604 2.17098 18.0011 2.03033C18.1417 1.88968 18.2208 1.69891 18.2208 1.5C18.2208 1.30109 18.1417 1.11032 18.0011 0.96967C17.8604 0.829018 17.6697 0.75 17.4708 0.75H0.970764C0.771852 0.75 0.581086 0.829018 0.440434 0.96967C0.299782 1.11032 0.220764 1.30109 0.220764 1.5C0.220764 1.69891 0.299782 1.88968 0.440434 2.03033C0.581086 2.17098 0.771852 2.25 0.970764 2.25ZM17.4708 12.75H0.970764C0.771852 12.75 0.581086 12.829 0.440434 12.9697C0.299782 13.1103 0.220764 13.3011 0.220764 13.5C0.220764 13.6989 0.299782 13.8897 0.440434 14.0303C0.581086 14.171 0.771852 14.25 0.970764 14.25H17.4708C17.6697 14.25 17.8604 14.171 18.0011 14.0303C18.1417 13.8897 18.2208 13.6989 18.2208 13.5C18.2208 13.3011 18.1417 13.1103 18.0011 12.9697C17.8604 12.829 17.6697 12.75 17.4708 12.75Z" fill="white"/>
</svg>
