<svg width="10" height="9" viewBox="0 0 10 9" fill="none" xmlns="http://www.w3.org/2000/svg">
<path d="M9.08414 2.32338L7.20415 0.442966C7.14163 0.380435 7.06741 0.330831 6.98572 0.296989C6.90403 0.263146 6.81647 0.245728 6.72805 0.245728C6.63963 0.245728 6.55207 0.263146 6.47038 0.296989C6.38869 0.330831 6.31447 0.380435 6.25195 0.442966L1.06346 5.63187C1.00068 5.69416 0.950896 5.76831 0.917018 5.85001C0.883141 5.9317 0.86584 6.01932 0.866123 6.10776V7.98817C0.866123 8.16672 0.937052 8.33796 1.06331 8.46422C1.18956 8.59047 1.3608 8.6614 1.53935 8.6614H3.41976C3.5082 8.66168 3.59582 8.64438 3.67752 8.61051C3.75921 8.57663 3.83336 8.52685 3.89565 8.46406L9.08414 3.27557C9.14667 3.21306 9.19627 3.13883 9.23011 3.05714C9.26396 2.97545 9.28137 2.8879 9.28137 2.79948C9.28137 2.71105 9.26396 2.6235 9.23011 2.54181C9.19627 2.46012 9.14667 2.38589 9.08414 2.32338ZM3.41976 7.98817H1.53935V6.10776L5.24211 2.40501L7.12252 4.28542L3.41976 7.98817ZM7.59841 3.80911L5.718 1.92912L6.72784 0.919275L8.60825 2.79927L7.59841 3.80911Z" fill="#5D5D5D"/>
</svg>
