<svg width="15" height="20" viewBox="0 0 15 20" fill="none" xmlns="http://www.w3.org/2000/svg">
<path d="M10.5 3.25H1.5C1.10218 3.25 0.720644 3.40804 0.43934 3.68934C0.158035 3.97064 2.33749e-10 4.35218 2.33748e-10 4.75V19C-3.43969e-06 19.1378 0.0379607 19.2729 0.109725 19.3906C0.181489 19.5082 0.284279 19.6038 0.40681 19.6669C0.529342 19.7299 0.666878 19.758 0.804322 19.748C0.941765 19.7381 1.0738 19.6904 1.18594 19.6103L6 16.1716L10.815 19.6103C10.9271 19.6901 11.0591 19.7376 11.1964 19.7474C11.3337 19.7573 11.471 19.7291 11.5934 19.6661C11.7158 19.6031 11.8184 19.5076 11.8902 19.3901C11.9619 19.2726 11.9999 19.1377 12 19V4.75C12 4.35218 11.842 3.97064 11.5607 3.68934C11.2794 3.40804 10.8978 3.25 10.5 3.25ZM10.5 17.5431L6.435 14.6369C6.3078 14.546 6.15538 14.4972 5.99906 14.4972C5.84274 14.4972 5.69033 14.546 5.56312 14.6369L1.5 17.5422V4.75H10.5V17.5431ZM15 1.75V16C15 16.1989 14.921 16.3897 14.7803 16.5303C14.6397 16.671 14.4489 16.75 14.25 16.75C14.0511 16.75 13.8603 16.671 13.7197 16.5303C13.579 16.3897 13.5 16.1989 13.5 16V1.75H3.75C3.55109 1.75 3.36032 1.67098 3.21967 1.53033C3.07902 1.38968 3 1.19891 3 1C3 0.801088 3.07902 0.610322 3.21967 0.46967C3.36032 0.329018 3.55109 0.25 3.75 0.25H13.5C13.8978 0.25 14.2794 0.408035 14.5607 0.68934C14.842 0.970644 15 1.35218 15 1.75Z" fill="#5D5D5D"/>
</svg>
