<svg width="12" height="12" viewBox="0 0 12 12" fill="none" xmlns="http://www.w3.org/2000/svg">
<path d="M10.6552 3.43909L8.56079 1.34424C8.49114 1.27458 8.40845 1.21932 8.31745 1.18162C8.22644 1.14392 8.1289 1.12451 8.03039 1.12451C7.93189 1.12451 7.83435 1.14392 7.74334 1.18162C7.65234 1.21932 7.56965 1.27458 7.5 1.34424L1.71985 7.12487C1.6499 7.19426 1.59444 7.27686 1.5567 7.36787C1.51896 7.45889 1.49969 7.5565 1.5 7.65502V9.74987C1.5 9.94878 1.57902 10.1395 1.71967 10.2802C1.86033 10.4208 2.05109 10.4999 2.25 10.4999H4.34485C4.44338 10.5002 4.54098 10.4809 4.632 10.4432C4.72301 10.4054 4.80561 10.35 4.875 10.28L10.6552 4.49987C10.7248 4.43022 10.7801 4.34753 10.8178 4.25653C10.8555 4.16552 10.8749 4.06798 10.8749 3.96948C10.8749 3.87097 10.8555 3.77343 10.8178 3.68242C10.7801 3.59142 10.7248 3.50873 10.6552 3.43909ZM4.34485 9.74987H2.25V7.65502L6.375 3.53002L8.46985 5.62487L4.34485 9.74987ZM9 5.09424L6.90516 2.99987L8.03016 1.87487L10.125 3.96924L9 5.09424Z" fill="#6D6D6D"/>
</svg>
